# xmcd
#
# Track frame offsets:
#	150
#	12360
#	29865
#	41675
#	55572
#	67440
#	80095
#	93582
#	107840
#	120847
#
# Disc length: 1755 seconds
#
# Revision: 1
# Processed by: cddbd v1.5.2PL0 Copyright (c) Steve Scherf et al.
# Submitted via: audiograbber 1.83.01
#
DISCID=8906d90a
DTITLE=Terry Dennis - Music To My Tears
DYEAR=1997
DGENRE=Country
TTITLE0=My Baby And Me
TTITLE1=Music To My Tears
TTITLE2=Haggard To The Bone
TTITLE3=Me All Alone
TTITLE4=No Thanks I´m Driving
TTITLE5=If You Leaving Me
TTITLE6=In Memory Of Your Memory
TTITLE7=Anybody But You
TTITLE8=Keep It Under Your Heart
TTITLE9=Thank God For Jesus
EXTD=
EXTT0=
EXTT1=
EXTT2=
EXTT3=
EXTT4=
EXTT5=
EXTT6=
EXTT7=
EXTT8=
EXTT9=
PLAYORDER=
